<?xml version="1.0" encoding="UTF-8" standalone="no"?>
<!DOCTYPE svg PUBLIC "-//W3C//DTD SVG 1.1//EN" "http://www.w3.org/Graphics/SVG/1.1/DTD/svg11.dtd">
<svg version="1.1" xmlns="http://www.w3.org/2000/svg" xmlns:xlink="http://www.w3.org/1999/xlink" preserveAspectRatio="xMidYMid meet" viewBox="0 0 120 160"><defs><path d="M120 80L120 120L80 120L80 80L120 80Z" id="OzTpZQdOLX"></path><path d="M40 40L40 120L0 120L0 40L40 40Z" id="nykyouSoZ"></path><path d="M120 40L82.5 0L40.31 0L0 40L120 40Z" id="ob1Mw7YeHV"></path><path d="M120 120L78.75 160L40.31 160L0 120L120 120Z" id="vi8tEJgboK"></path></defs><g visibility="inherit"><g visibility="inherit"><g><g><filter id="shadow8802793" x="73" y="73" width="54" height="54" filterUnits="userSpaceOnUse" primitiveUnits="userSpaceOnUse"><feFlood></feFlood><feComposite in2="SourceAlpha" operator="in"></feComposite><feGaussianBlur stdDeviation="1"></feGaussianBlur><feOffset dx="0" dy="0" result="afterOffset"></feOffset><feFlood flood-color="#000000" flood-opacity="0.5"></feFlood><feComposite in2="afterOffset" operator="in"></feComposite><feMorphology operator="dilate" radius="0"></feMorphology><feComposite in2="SourceAlpha" operator="out"></feComposite></filter><path d="M120 80L120 120L80 120L80 80L120 80Z" id="AFakAVbOTd" fill="white" fill-opacity="1" filter="url(#shadow8802793)"></path></g><use xlink:href="#OzTpZQdOLX" opacity="1" fill="#0d47a1" fill-opacity="1"></use></g><g><g><filter id="shadow5669503" x="-7" y="33" width="54" height="94" filterUnits="userSpaceOnUse" primitiveUnits="userSpaceOnUse"><feFlood></feFlood><feComposite in2="SourceAlpha" operator="in"></feComposite><feGaussianBlur stdDeviation="1"></feGaussianBlur><feOffset dx="0" dy="0" result="afterOffset"></feOffset><feFlood flood-color="#000000" flood-opacity="0.5"></feFlood><feComposite in2="afterOffset" operator="in"></feComposite><feMorphology operator="dilate" radius="0"></feMorphology><feComposite in2="SourceAlpha" operator="out"></feComposite></filter><path d="M40 40L40 120L0 120L0 40L40 40Z" id="C9z2Uvpxzj" fill="white" fill-opacity="1" filter="url(#shadow5669503)"></path></g><use xlink:href="#nykyouSoZ" opacity="1" fill="#0d47a1" fill-opacity="1"></use></g><g><g><filter id="shadow16447742" x="-9" y="-9" width="139" height="59" filterUnits="userSpaceOnUse" primitiveUnits="userSpaceOnUse"><feFlood></feFlood><feComposite in2="SourceAlpha" operator="in"></feComposite><feGaussianBlur stdDeviation="1"></feGaussianBlur><feOffset dx="1" dy="1" result="afterOffset"></feOffset><feFlood flood-color="#000000" flood-opacity="0.5"></feFlood><feComposite in2="afterOffset" operator="in"></feComposite><feMorphology operator="dilate" radius="1"></feMorphology><feComposite in2="SourceAlpha" operator="out"></feComposite></filter><path d="M120 40L82.5 0L40.31 0L0 40L120 40Z" id="klAzGlY1L" fill="white" fill-opacity="1" filter="url(#shadow16447742)"></path></g><use xlink:href="#ob1Mw7YeHV" opacity="1" fill="#2095f3" fill-opacity="1"></use></g><g><g><filter id="shadow12635667" x="-9" y="111" width="139" height="59" filterUnits="userSpaceOnUse" primitiveUnits="userSpaceOnUse"><feFlood></feFlood><feComposite in2="SourceAlpha" operator="in"></feComposite><feGaussianBlur stdDeviation="1"></feGaussianBlur><feOffset dx="1" dy="1" result="afterOffset"></feOffset><feFlood flood-color="#000000" flood-opacity="0.5"></feFlood><feComposite in2="afterOffset" operator="in"></feComposite><feMorphology operator="dilate" radius="1"></feMorphology><feComposite in2="SourceAlpha" operator="out"></feComposite></filter><path d="M120 120L78.75 160L40.31 160L0 120L120 120Z" id="QkmsGDrGKO" fill="white" fill-opacity="1" filter="url(#shadow12635667)"></path></g><use xlink:href="#vi8tEJgboK" opacity="1" fill="#2095f3" fill-opacity="1"></use></g></g></g></svg>