<?xml version="1.0" encoding="UTF-8" standalone="no"?>
<!DOCTYPE svg PUBLIC "-//W3C//DTD SVG 1.1//EN" "http://www.w3.org/Graphics/SVG/1.1/DTD/svg11.dtd">
<svg version="1.1" xmlns="http://www.w3.org/2000/svg" xmlns:xlink="http://www.w3.org/1999/xlink" preserveAspectRatio="xMidYMid meet" viewBox="0 0 120 160"><defs><path d="M80 40L80 120L120 120L120 40L80 40Z" id="d2xlXuPyon"></path><path d="M0 40L0 120L40 120L40 40L0 40Z" id="tbFCaMyFOr"></path><path d="M0 40L39.89 0L79.69 0L120 40L0 40Z" id="pqH5yRGTL"></path><path d="M0 120L39.89 160L79.69 160L120 120L0 120Z" id="BhhshtY0Mo"></path></defs><g visibility="inherit"><g visibility="inherit"><g><g><filter id="shadow6630803" x="73" y="33" width="54" height="94" filterUnits="userSpaceOnUse" primitiveUnits="userSpaceOnUse"><feFlood></feFlood><feComposite in2="SourceAlpha" operator="in"></feComposite><feGaussianBlur stdDeviation="1"></feGaussianBlur><feOffset dx="0" dy="0" result="afterOffset"></feOffset><feFlood flood-color="#000000" flood-opacity="0.5"></feFlood><feComposite in2="afterOffset" operator="in"></feComposite><feMorphology operator="dilate" radius="0"></feMorphology><feComposite in2="SourceAlpha" operator="out"></feComposite></filter><path d="M80 40L80 120L120 120L120 40L80 40Z" id="tkyUy0Gd60" fill="white" fill-opacity="1" filter="url(#shadow6630803)"></path></g><use xlink:href="#d2xlXuPyon" opacity="1" fill="#0d47a1" fill-opacity="1"></use></g><g><g><filter id="shadow225219" x="-7" y="33" width="54" height="94" filterUnits="userSpaceOnUse" primitiveUnits="userSpaceOnUse"><feFlood></feFlood><feComposite in2="SourceAlpha" operator="in"></feComposite><feGaussianBlur stdDeviation="1"></feGaussianBlur><feOffset dx="0" dy="0" result="afterOffset"></feOffset><feFlood flood-color="#000000" flood-opacity="0.5"></feFlood><feComposite in2="afterOffset" operator="in"></feComposite><feMorphology operator="dilate" radius="0"></feMorphology><feComposite in2="SourceAlpha" operator="out"></feComposite></filter><path d="M0 40L0 120L40 120L40 40L0 40Z" id="mfI5xMIMQS" fill="white" fill-opacity="1" filter="url(#shadow225219)"></path></g><use xlink:href="#tbFCaMyFOr" opacity="1" fill="#0d47a1" fill-opacity="1"></use></g><g><g><filter id="shadow10686809" x="-9" y="-9" width="139" height="59" filterUnits="userSpaceOnUse" primitiveUnits="userSpaceOnUse"><feFlood></feFlood><feComposite in2="SourceAlpha" operator="in"></feComposite><feGaussianBlur stdDeviation="1"></feGaussianBlur><feOffset dx="1" dy="1" result="afterOffset"></feOffset><feFlood flood-color="#000000" flood-opacity="0.5"></feFlood><feComposite in2="afterOffset" operator="in"></feComposite><feMorphology operator="dilate" radius="1"></feMorphology><feComposite in2="SourceAlpha" operator="out"></feComposite></filter><path d="M0 40L39.89 0L79.69 0L120 40L0 40Z" id="oDV3MyD1pH" fill="white" fill-opacity="1" filter="url(#shadow10686809)"></path></g><use xlink:href="#pqH5yRGTL" opacity="1" fill="#2095f3" fill-opacity="1"></use></g><g><g><filter id="shadow12104616" x="-9" y="111" width="139" height="59" filterUnits="userSpaceOnUse" primitiveUnits="userSpaceOnUse"><feFlood></feFlood><feComposite in2="SourceAlpha" operator="in"></feComposite><feGaussianBlur stdDeviation="1"></feGaussianBlur><feOffset dx="1" dy="1" result="afterOffset"></feOffset><feFlood flood-color="#000000" flood-opacity="0.5"></feFlood><feComposite in2="afterOffset" operator="in"></feComposite><feMorphology operator="dilate" radius="1"></feMorphology><feComposite in2="SourceAlpha" operator="out"></feComposite></filter><path d="M0 120L39.89 160L79.69 160L120 120L0 120Z" id="P13t6cOvOF" fill="white" fill-opacity="1" filter="url(#shadow12104616)"></path></g><use xlink:href="#BhhshtY0Mo" opacity="1" fill="#2095f3" fill-opacity="1"></use></g></g></g></svg>