<?xml version="1.0" encoding="UTF-8" standalone="no"?>
<!DOCTYPE svg PUBLIC "-//W3C//DTD SVG 1.1//EN" "http://www.w3.org/Graphics/SVG/1.1/DTD/svg11.dtd">
<svg version="1.1" xmlns="http://www.w3.org/2000/svg" xmlns:xlink="http://www.w3.org/1999/xlink" preserveAspectRatio="xMidYMid meet" viewBox="0 0 120 160"><defs><path d="M80 40L80 120L120 120L120 40L80 40Z" id="qzAHLO7UID"></path><path d="M0 40L0 120L40 120L40 40L0 40Z" id="Bq8akWoomc"></path><path d="M0 40L39.89 0L79.69 0L120 40L0 40Z" id="ex8WDQHbI3"></path><path d="M0 120L39.89 160L120 160L120 120L0 120Z" id="vjqh9ASJ16"></path></defs><g visibility="inherit"><g visibility="inherit"><g><g><filter id="shadow9765289" x="73" y="33" width="54" height="94" filterUnits="userSpaceOnUse" primitiveUnits="userSpaceOnUse"><feFlood></feFlood><feComposite in2="SourceAlpha" operator="in"></feComposite><feGaussianBlur stdDeviation="1"></feGaussianBlur><feOffset dx="0" dy="0" result="afterOffset"></feOffset><feFlood flood-color="#000000" flood-opacity="0.5"></feFlood><feComposite in2="afterOffset" operator="in"></feComposite><feMorphology operator="dilate" radius="0"></feMorphology><feComposite in2="SourceAlpha" operator="out"></feComposite></filter><path d="M80 40L80 120L120 120L120 40L80 40Z" id="EciiHtuVoP" fill="white" fill-opacity="1" filter="url(#shadow9765289)"></path></g><use xlink:href="#qzAHLO7UID" opacity="1" fill="#0d47a1" fill-opacity="1"></use></g><g><g><filter id="shadow1696487" x="-7" y="33" width="54" height="94" filterUnits="userSpaceOnUse" primitiveUnits="userSpaceOnUse"><feFlood></feFlood><feComposite in2="SourceAlpha" operator="in"></feComposite><feGaussianBlur stdDeviation="1"></feGaussianBlur><feOffset dx="0" dy="0" result="afterOffset"></feOffset><feFlood flood-color="#000000" flood-opacity="0.5"></feFlood><feComposite in2="afterOffset" operator="in"></feComposite><feMorphology operator="dilate" radius="0"></feMorphology><feComposite in2="SourceAlpha" operator="out"></feComposite></filter><path d="M0 40L0 120L40 120L40 40L0 40Z" id="P4KpidFRfL" fill="white" fill-opacity="1" filter="url(#shadow1696487)"></path></g><use xlink:href="#Bq8akWoomc" opacity="1" fill="#0d47a1" fill-opacity="1"></use></g><g><g><filter id="shadow16648122" x="-9" y="-9" width="139" height="59" filterUnits="userSpaceOnUse" primitiveUnits="userSpaceOnUse"><feFlood></feFlood><feComposite in2="SourceAlpha" operator="in"></feComposite><feGaussianBlur stdDeviation="1"></feGaussianBlur><feOffset dx="1" dy="1" result="afterOffset"></feOffset><feFlood flood-color="#000000" flood-opacity="0.5"></feFlood><feComposite in2="afterOffset" operator="in"></feComposite><feMorphology operator="dilate" radius="1"></feMorphology><feComposite in2="SourceAlpha" operator="out"></feComposite></filter><path d="M0 40L39.89 0L79.69 0L120 40L0 40Z" id="fwcaPxSYep" fill="white" fill-opacity="1" filter="url(#shadow16648122)"></path></g><use xlink:href="#ex8WDQHbI3" opacity="1" fill="#2095f3" fill-opacity="1"></use></g><g><g><filter id="shadow7689001" x="-9" y="111" width="139" height="59" filterUnits="userSpaceOnUse" primitiveUnits="userSpaceOnUse"><feFlood></feFlood><feComposite in2="SourceAlpha" operator="in"></feComposite><feGaussianBlur stdDeviation="1"></feGaussianBlur><feOffset dx="1" dy="1" result="afterOffset"></feOffset><feFlood flood-color="#000000" flood-opacity="0.5"></feFlood><feComposite in2="afterOffset" operator="in"></feComposite><feMorphology operator="dilate" radius="1"></feMorphology><feComposite in2="SourceAlpha" operator="out"></feComposite></filter><path d="M0 120L39.89 160L120 160L120 120L0 120Z" id="LBro4VlUVN" fill="white" fill-opacity="1" filter="url(#shadow7689001)"></path></g><use xlink:href="#vjqh9ASJ16" opacity="1" fill="#2095f3" fill-opacity="1"></use></g></g></g></svg>